<svg width="14" height="14" viewBox="0 0 14 14" fill="none" xmlns="http://www.w3.org/2000/svg">
<path fill-rule="evenodd" clip-rule="evenodd" d="M12.5974 0.654355C12.1783 0.235372 11.6099 0 11.0173 0C10.4247 0 9.85632 0.235372 9.43721 0.654355L8.91051 1.1818L12.5981 4.86942L13.1241 4.34272C13.3317 4.13518 13.4963 3.88879 13.6086 3.61761C13.721 3.34644 13.7788 3.05578 13.7788 2.76226C13.7788 2.46873 13.721 2.17808 13.6086 1.9069C13.4963 1.63573 13.3317 1.38933 13.1241 1.1818L12.5974 0.654355ZM11.544 5.92281L7.85637 2.23519L1.08456 9.00775C0.93637 9.15596 0.832851 9.34286 0.785824 9.54711L0.0192459 12.866C-0.00931719 12.9892 -0.00604087 13.1176 0.0287661 13.2392C0.063573 13.3608 0.128765 13.4716 0.218198 13.561C0.307631 13.6504 0.418362 13.7156 0.539956 13.7504C0.66155 13.7852 0.790004 13.7885 0.913215 13.7599L4.23282 12.9941C4.4368 12.9469 4.62343 12.8434 4.77143 12.6954L11.544 5.92281Z" fill="#5AB261"/>
</svg>
