<svg width="26" height="26" viewBox="0 0 26 26" fill="none" xmlns="http://www.w3.org/2000/svg">
<path fill-rule="evenodd" clip-rule="evenodd" d="M13 0C9.55219 5.13764e-08 6.24558 1.36964 3.80761 3.80761C1.36964 6.24558 0 9.55219 0 13C0 16.4478 1.36964 19.7544 3.80761 22.1924C6.24558 24.6304 9.55219 26 13 26H19.5C21.5193 26 22.529 26 23.3249 25.6707C23.8508 25.4529 24.3286 25.1336 24.7311 24.7311C25.1336 24.3286 25.4529 23.8508 25.6707 23.3249C26 22.529 26 21.5193 26 19.5V13C26 9.55219 24.6304 6.24558 22.1924 3.80761C19.7544 1.36964 16.4478 0 13 0ZM7.22222 11.5556C7.22222 11.1725 7.3744 10.8051 7.64529 10.5342C7.91618 10.2633 8.28358 10.1111 8.66667 10.1111H17.3333C17.7164 10.1111 18.0838 10.2633 18.3547 10.5342C18.6256 10.8051 18.7778 11.1725 18.7778 11.5556C18.7778 11.9386 18.6256 12.306 18.3547 12.5769C18.0838 12.8478 17.7164 13 17.3333 13H8.66667C8.28358 13 7.91618 12.8478 7.64529 12.5769C7.3744 12.306 7.22222 11.9386 7.22222 11.5556ZM11.5556 17.3333C11.5556 16.9502 11.7077 16.5828 11.9786 16.312C12.2495 16.0411 12.6169 15.8889 13 15.8889H17.3333C17.7164 15.8889 18.0838 16.0411 18.3547 16.312C18.6256 16.5828 18.7778 16.9502 18.7778 17.3333C18.7778 17.7164 18.6256 18.0838 18.3547 18.3547C18.0838 18.6256 17.7164 18.7778 17.3333 18.7778H13C12.6169 18.7778 12.2495 18.6256 11.9786 18.3547C11.7077 18.0838 11.5556 17.7164 11.5556 17.3333Z" fill="#8D8D8D"/>
</svg>
