<svg width="27" height="27" viewBox="0 0 27 27" fill="none" xmlns="http://www.w3.org/2000/svg">
<path d="M11.5875 9.57371C14.5505 12.2554 15.464 14.8778 13.6279 15.4311C11.7917 15.9844 7.9013 14.259 4.93831 11.5774C2.57153 9.11816 1.57195 7.61745 2.89794 5.72001C4.07329 4.61699 8.62451 6.89206 11.5875 9.57371Z" fill="#5BB262"/>
<path d="M19.5346 13.4466C16.035 15.7285 13.073 15.9685 12.9187 13.9828C12.7645 11.9971 15.4764 8.53751 18.976 6.25562C22.4756 3.97374 24.0728 4.11621 25.0728 5.11621C25.227 7.10194 23.0342 11.1647 19.5346 13.4466Z" fill="#5BB262"/>
<path d="M12.5728 12.6162H14.5728L14.0728 19.6162L14.5728 26.6162H12.5728L13.0728 23.1162V15.6162L12.5728 12.6162Z" fill="#5BB262"/>
</svg>
